# xmcd
#
# Track frame offsets: 
#        150
#        18030
#        33367
#        50636
#        69129
#        87996
#        117879
#        132737
#        147940
#        167404
#
# Disc length: 2758 seconds
#
# Revision: 6
# Processed by: cddbd v1.5.2PL0 Copyright (c) Steve Scherf et al.
# Submitted via: ExactAudioCopy v1.3
#
DISCID=7f0ac40a
DTITLE=Various Artist - AUDIO 2018-01 - 40 Jahre AUDIO [Klipsch]
DYEAR=2017
DGENRE=Audiophile
TTITLE0=Blues Company - Red Blood
TTITLE1=Hans Theessink and Terry Evans - Delta Time
TTITLE2=Chris Jones - God Moves On The Water
TTITLE3=Sara K. - Vincent
TTITLE4=Friend 'N Fellow - I Still Haven't Found What I'm Looking For
TTITLE5=Macy Gray - Nothing Else Matters
TTITLE6=Friedemann - Sentimental Elegance
TTITLE7=Thomas Siffling Trio - Just A Little Song From St. Lucia
TTITLE8=Peter Tschaikowsky - Cassack Dance From Mazeppa [Cincinnati Po
TTITLE8=ps Orchestra - Erich Kunzel]
TTITLE9=Cameron Carpenter - Johann Sebastian Bach: Toccata und Fuge in
TTITLE9=d-Moll, BWV 565
EXTD=
EXTT0=
EXTT1=
EXTT2=
EXTT3=
EXTT4=
EXTT5=
EXTT6=
EXTT7=
EXTT8=
EXTT9=
PLAYORDER=
